<svg viewBox="0 0 200 200" xmlns="http://www.w3.org/2000/svg">
  <!-- Blue swoosh (left) -->
  <path d="M 60 50 Q 80 50 90 70 Q 100 90 80 110 Q 60 130 40 130 Q 30 130 25 120 L 35 100 Q 45 110 60 110 Q 75 110 80 95 Q 85 80 70 65 Q 55 50 40 50 Q 30 50 25 60 Z" fill="#2196F3"/>
  
  <!-- Purple swoosh (top right) -->
  <path d="M 110 40 Q 140 40 155 60 Q 170 80 165 110 Q 160 130 140 140 L 130 125 Q 145 120 150 105 Q 155 85 145 70 Q 130 50 110 50 Z" fill="#6E3CF0"/>
  
  <!-- Magenta G shape (right) -->
  <path d="M 130 70 L 130 140 Q 130 155 145 155 L 145 140 Q 140 140 140 130 L 140 85 Q 140 75 150 75 L 150 60 Q 135 60 130 70 Z" fill="#FF2D95"/>
  
  <!-- Orange swoosh (bottom left) -->
  <path d="M 45 120 Q 65 130 85 125 L 80 110 Q 65 115 50 110 Z" fill="#FF6A4B"/>
</svg>